<?xml version="1.0" encoding="utf-8"?>
<!-- Svg Vector Icons : http://www.onlinewebfonts.com/icon -->
<!DOCTYPE svg PUBLIC "-//W3C//DTD SVG 1.1//EN" "http://www.w3.org/Graphics/SVG/1.1/DTD/svg11.dtd">
<svg version="1.1" xmlns="http://www.w3.org/2000/svg" xmlns:xlink="http://www.w3.org/1999/xlink" x="0px" y="0px" viewBox="0 0 1000 1000" enable-background="new 0 0 1000 1000" xml:space="preserve">
<metadata> Svg Vector Icons : http://www.onlinewebfonts.com/icon </metadata>
<g><path d="M622,311.5"/><path d="M856.8,76.7H143.3C69.8,76.7,10,136.5,10,209.9v447.4c0,73.5,59.8,133.2,133.3,133.2h713.5c73.5,0,133.3-59.8,133.3-133.2l0-447.4C990,136.5,930.2,76.7,856.8,76.7z M945.4,628.3c0,63.9-52,116-116,116H173c-64,0-116-52-116-116V239c0-63.9,52-116,116-116h656.3c63.9,0,116,52,116,116V628.3z"/><path d="M181.4,923.3h637.1c0.5,0,0.9-0.4,0.9-0.9v-41.8c0-0.5-0.4-0.9-0.9-0.9H181.4c-0.5,0-0.9,0.4-0.9,0.9v41.8C180.5,922.9,180.9,923.3,181.4,923.3z"/><path d="M752.1,335.9c-10.6-6.1-24.4-2.5-30.5,8.2l-83.9,145.3l-83.9-145.3c-6.1-10.6-19.9-14.3-30.5-8.2c-10.6,6.1-14.3,19.9-8.2,30.5L617.7,544c3.6,6.3,10,9.8,16.8,10.6c1.1,0.2,2.1,0.2,3.2,0.2c1.1,0,2.1,0,3.2-0.2c6.8-0.8,13.1-4.3,16.8-10.6l102.6-177.6C766.4,355.8,762.8,342,752.1,335.9z"/><path d="M459.5,326.5H254.4c-12.3,0-22.3,10-22.3,22.3c0,12.3,10,22.3,22.3,22.3h80.2v167.8c0,12.3,10,22.3,22.3,22.3s22.3-10,22.3-22.3V371.2h80.2c12.3,0,22.3-10,22.3-22.3C481.9,336.6,471.8,326.5,459.5,326.5z"/></g>
</svg>