<?xml version="1.0" encoding="utf-8"?>
<!-- Svg Vector Icons : http://www.onlinewebfonts.com/icon -->
<!DOCTYPE svg PUBLIC "-//W3C//DTD SVG 1.1//EN" "http://www.w3.org/Graphics/SVG/1.1/DTD/svg11.dtd">
<svg version="1.1" xmlns="http://www.w3.org/2000/svg" xmlns:xlink="http://www.w3.org/1999/xlink" x="0px" y="0px" viewBox="0 0 1000 1000" enable-background="new 0 0 1000 1000" xml:space="preserve">
<metadata> Svg Vector Icons : http://www.onlinewebfonts.com/icon </metadata>
<g><g transform="translate(0.000000,511.000000) scale(0.100000,-0.100000)"><path d="M3243.6,4991.4c-85.6-44.1-124.5-160.8-88.2-254.2c36.3-85.6,124.5-132.3,246.5-132.3c145.3,0,409.9-98.6,547.4-202.3c568.1-433.3,568.1-1237.5,0-1670.7c-140.1-106.4-402.1-202.4-555.2-202.4c-194.6,0-300.9-129.7-236.1-285.4c33.7-80.4,109-116.7,290.6-142.7c64.9-7.8,168.6-46.7,225.7-85.6c243.9-163.4,339.9-428.1,259.4-718.6c-38.9-140.1-259.4-360.6-399.5-399.5c-67.5-18.2-469.6-28.5-1162.2-28.5c-1185.6,0-1208.9-2.6-1276.4-166c-46.7-109-51.9-451.4-10.4-544.8c41.5-90.8,158.3-134.9,254.2-96c90.8,38.9,132.3,124.5,132.3,275v114.1l1045.5,7.8c1022.2,7.8,1045.5,10.4,1193.4,67.4c407.3,166,653.8,529.2,653.8,965.1c0,249.1-62.3,425.5-220.5,633l-121.9,163.4l111.6,70c166,103.8,409.9,381.4,500.7,565.6c448.8,913.2-160.8,1997.6-1172.6,2083.2C3368.1,5014.7,3277.3,5006.9,3243.6,4991.4z"/><path d="M8992.6,4028.9c-33.8-13-1048.1-1009.2-2254.4-2212.9L4545.9-376.2l-2106.6-5.2c-1982-7.8-2109.1-10.4-2153.2-54.5c-41.5-41.5-46.7-121.9-54.5-931.3c-7.8-944.3-2.6-1001.4,114.1-1055.9c44.1-18.2,383.9-28.5,1094.8-28.5h1029.9L1451-3471.1C846.5-4078.2,434-4511.4,431.4-4540c-10.4-189.4,59.7-259.4,249.1-249c31.1,2.6,518.9,469.6,1219.3,1170l1167.4,1167.4h3261c2334.9,0,3279.1,7.8,3323.3,28.5c116.7,51.9,121.9,106.4,121.9,1011.8c0,923.6-7.8,983.2-134.9,1019.6c-33.7,7.8-1058.5,15.6-2277.8,15.6H5142.6l2057.3,2057.3c1255.6,1255.6,2054.7,2075.4,2057.3,2106.6C9270.1,3987.4,9158.6,4088.6,8992.6,4028.9z M3508.2-1413.9l-622.6-622.6H1764.9H641.6v622.6v622.6h1743.4h1745.9L3508.2-1413.9z M6867.8-1413.9v-622.6H5176.4H3482.3l622.6,622.6l622.6,622.6h1068.9h1071.4V-1413.9z M9358.3-1413.9v-622.6H8320.6H7282.9v622.6v622.6h1037.7h1037.7V-1413.9z"/><path d="M1842.7,3320.7c-412.5-111.5-687.5-412.5-765.3-843.1c-38.9-197.2,0-422.9,103.8-625.2l75.2-145.3l-199.8-15.5c-116.7-7.8-249-33.7-319.1-64.9c-166-75.2-342.5-246.5-425.5-417.7c-67.4-137.5-72.6-168.6-83-555.2c-10.4-456.6,7.8-539.6,129.7-588.9c96-41.5,212.7,2.6,254.2,93.4c15.6,38.9,28.5,212.7,28.5,430.7c0,339.8,5.2,373.6,62.3,472.1c33.7,59.7,109,132.3,166,166c98.6,54.5,129.7,57.1,674.5,57.1c371,0,596.7,10.4,638.2,28.5c90.8,41.5,134.9,158.3,93.4,254.2c-33.7,83-106.4,119.3-290.6,145.3c-150.5,20.8-316.5,127.1-412.5,269.8c-241.3,363.2-10.4,892.4,412.5,949.5c184.2,25.9,256.8,62.3,290.6,145.3c62.3,145.3-51.9,285.4-228.3,280.2C2008.7,3357,1915.3,3338.8,1842.7,3320.7z"/></g></g>
</svg>