<?xml version="1.0" encoding="utf-8"?>
<!-- Svg Vector Icons : http://www.onlinewebfonts.com/icon -->
<!DOCTYPE svg PUBLIC "-//W3C//DTD SVG 1.1//EN" "http://www.w3.org/Graphics/SVG/1.1/DTD/svg11.dtd">
<svg version="1.1" xmlns="http://www.w3.org/2000/svg" xmlns:xlink="http://www.w3.org/1999/xlink" x="0px" y="0px" viewBox="0 0 1000 1000" enable-background="new 0 0 1000 1000" xml:space="preserve">
<metadata> Svg Vector Icons : http://www.onlinewebfonts.com/icon </metadata>
<g><g><g><g><circle cx="500" cy="738.7" r="112.5"/><path d="M500,377.8c-137.8,0-262,81.8-316.5,208.3c-13.4,31.1,1,67.2,32.1,80.6c31.1,13.4,67.2-0.9,80.6-32.1c35.1-81.5,115.1-134.2,203.9-134.2s168.7,52.7,203.9,134.2c10,23.2,32.6,37.1,56.4,37.1c8.1,0,16.3-1.6,24.2-5c31.1-13.4,45.5-49.5,32.1-80.6C762,459.6,637.8,377.8,500,377.8z"/><path d="M980,408.3C873.4,245.8,694,148.8,500,148.8c-194,0-373.4,97-480,259.5c-18.6,28.3-10.7,66.4,17.7,84.9c10.4,6.8,22,10,33.6,10c20,0,39.6-9.8,51.4-27.7C206.4,347.8,347.5,271.5,500,271.5c152.5,0,293.6,76.3,377.4,204.1c18.6,28.3,56.6,36.3,84.9,17.7C990.6,474.7,998.5,436.7,980,408.3z"/></g></g></g><g></g><g></g><g></g><g></g><g></g><g></g><g></g><g></g><g></g><g></g><g></g><g></g><g></g><g></g><g></g></g>
</svg>