<?xml version="1.0" encoding="utf-8"?>
<!-- Svg Vector Icons : http://www.onlinewebfonts.com/icon -->
<!DOCTYPE svg PUBLIC "-//W3C//DTD SVG 1.1//EN" "http://www.w3.org/Graphics/SVG/1.1/DTD/svg11.dtd">
<svg version="1.1" xmlns="http://www.w3.org/2000/svg" xmlns:xlink="http://www.w3.org/1999/xlink" x="0px" y="0px" viewBox="0 0 1000 1000" enable-background="new 0 0 1000 1000" xml:space="preserve">
<metadata> Svg Vector Icons : http://www.onlinewebfonts.com/icon </metadata>
<g><g transform="translate(0.000000,511.000000) scale(0.100000,-0.100000)"><path d="M2224.8,4852.9c-484.1-86.2-938.7-327.3-1305.2-691.8C445.4,3684.9,196.5,3095,196.5,2444.4c0-652.6,245-1222.9,732.9-1705c119.5-119.5,280.2-256.7,354.7-307.7c611.4-397.8,1285.6-515.4,1944-339c848.5,227.3,1540.3,919.1,1759.8,1761.8c174.4,668.3,58.8,1330.6-339,1942.1c-50.9,74.5-188.1,235.2-307.7,354.7c-380.2,386.1-809.4,615.4-1311,703.5C2816.7,4890.1,2438.4,4890.1,2224.8,4852.9z M3067.5,4425.7c801.5-172.5,1409-797.6,1548.2-1593.3c37.2-215.6,37.2-566.4,0-764.3C4453,1207.8,3802.4,580.7,2942.1,455.3c-229.3-35.3-633-15.7-834.8,39.2c-374.3,101.9-682,280.2-942.6,552.6c-390,405.7-584,942.6-550.7,1524.7c29.4,507.6,231.3,966.1,580.1,1315c303.8,301.8,689.8,495.8,1130.8,566.4C2483.5,4476.6,2900.9,4462.9,3067.5,4425.7z"/><path d="M2522.7,3982.8c-52.9-41.2-92.1-143.1-92.1-239.1c0-41.1-11.7-54.9-58.8-64.7c-82.3-17.6-272.4-147-360.6-245c-123.5-137.2-178.3-278.3-178.3-450.7c2-113.7,11.8-168.5,47-241c99.9-207.7,360.6-386.1,725.1-495.8c393.9-119.5,505.6-239.1,423.3-450.7c-23.5-62.7-56.8-103.9-113.7-141.1c-72.5-47-96-52.9-256.7-52.9c-201.9,0-307.7,37.2-521.3,188.1c-164.6,115.6-295.9,107.8-362.5-21.6c-52.9-103.9-39.2-174.4,54.9-262.6c90.2-88.2,333.2-221.5,495.8-274.4l99.9-33.3l11.8-99.9c37.2-307.7,423.3-284.2,425.3,27.4c0,60.7,7.8,68.6,137.2,129.3c256.7,119.5,442.9,364.5,464.5,607.5c15.7,178.3-31.3,311.6-158.7,448.8c-139.2,148.9-272.4,227.3-570.3,331.2c-407.6,143.1-484.1,196-484.1,346.9c0,101.9,41.2,190.1,111.7,245c107.8,86.2,364.5,103.9,495.8,35.3c31.4-15.7,98-72.5,147-123.5c82.3-84.3,100-94.1,178.3-94.1c64.7,0,99.9,11.8,137.2,47c54.9,51,82.3,150.9,60.7,217.5c-33.3,107.8-250.8,290-419.4,354.7c-88.2,33.3-90.2,35.3-103.9,137.2c-9.8,84.3-25.5,115.6-72.5,158.7C2708.9,4035.7,2597.2,4041.6,2522.7,3982.8z"/><path d="M5989.4,4541.3c-311.6-58.8-776.1-248.9-842.7-346.9c-39.2-56.8-39.2-170.5,0-227.3c33.3-47,125.4-101.9,174.4-101.9c15.7,0,111.7,39.2,211.6,86.2c868.1,413.5,1757.9,254.8,2443.8-439c527.2-529.1,738.8-1207.2,595.8-1900.9c-17.6-80.4-37.2-156.8-43.1-170.5c-7.8-13.7-84.3,135.2-168.5,329.2c-178.3,405.7-221.4,460.5-354.7,442.9c-98-13.7-186.2-103.9-186.2-192.1c0-35.3,103.9-295.9,243-611.4c133.3-303.8,248.9-572.2,254.8-595.8c21.5-68.6,123.5-143.1,197.9-143.1c101.9,0,1277.7,521.3,1318.9,586c52.9,78.4,39.2,192.1-31.3,260.6c-92.1,92.1-156.8,82.3-540.9-90.1c-182.2-82.3-337.1-145-341-141.1c-3.9,5.9,2,39.2,13.7,74.5c45.1,139.1,80.4,423.3,80.4,642.8c0,1066.1-660.4,2020.5-1669.7,2410.5c-266.5,103.9-480.1,141.1-848.6,148.9C6242.2,4566.8,6101.1,4560.9,5989.4,4541.3z"/><path d="M7251.5,200.5c-925-94.1-1738.3-723.1-2069.5-1601.1c-101.9-266.5-127.4-411.5-139.1-740.8c-11.7-354.7,13.7-538.9,113.7-842.7c237.1-709.4,846.6-1318.9,1561.9-1558c472.3-158.7,1024.9-158.7,1497.2,0c586,196,1105.3,638.9,1405.1,1199.4c362.5,670.2,372.3,1491.3,27.4,2181.2C9195.5-262,8209.8,298.5,7251.5,200.5z M7982.5-267.9C8705.6-458,9228.9-977.3,9422.9-1698.5c43.1-166.6,51-227.3,51-521.3c2-376.3-27.4-535-148.9-825c-437-1034.7-1663.8-1487.4-2737.7-1013.2c-405.6,180.3-795.6,582-975.9,1011.2c-123.5,292-152.9,450.7-150.9,827c0,295.9,5.9,354.7,52.9,527.1c201.9,750.6,799.6,1309.1,1560,1452.2C7288.7-199.3,7778.7-215,7982.5-267.9z"/><path d="M7357.3-904.8c-311.6-98-617.3-399.8-754.5-744.7l-33.3-80.4l-139.2-11.8c-160.7-11.8-227.3-58.8-248.9-168.5c-25.5-135.2,64.7-241,203.8-241c41.2,0,80.4-3.9,84.3-7.9c5.9-5.9,5.9-45.1,2-88.2c-7.9-70.5-13.7-80.3-54.9-80.3c-125.4,0-243-103.9-243-215.6c0-66.6,54.9-152.9,117.6-186.2c31.3-15.7,105.8-29.4,166.6-29.4c78.4,0,107.8-7.9,107.8-27.4c0-15.7,41.2-109.7,92.1-209.7c72.5-145,121.5-213.6,248.9-341c172.5-170.5,294-246.9,472.3-294c221.4-56.8,413.5-29.4,638.9,90.1c246.9,131.3,507.6,433.1,507.6,587.9c0,139.2-135.2,231.3-274.4,186.2c-52.9-15.7-90.1-54.9-160.7-164.6c-194-292-450.7-380.2-746.6-254.8c-105.8,47-260.6,203.8-325.3,333.1l-41.1,84.3l399.8,9.8c368.4,9.8,405.6,13.7,456.6,51c76.4,56.8,101.9,162.6,58.8,254.8c-54.9,113.7-109.8,125.4-582.1,125.4h-411.5v88.2v88.2h446.8c392,0,450.7,3.9,486,35.3c101.9,82.3,113.7,207.7,29.4,301.8l-56.8,64.7l-403.7,5.9c-221.4,3.9-403.7,13.7-403.7,21.5c0,37.2,121.5,197.9,213.6,280.3c258.7,233.2,611.4,196,823.1-86.2c143.1-192.1,166.6-211.6,260.6-211.6c186.2,2,268.5,178.3,160.7,342.9c-143.1,217.5-393.9,413.5-611.4,480.1C7700.3-871.5,7480.8-865.6,7357.3-904.8z"/><path d="M902-583.4c-744.7-331.2-740.8-329.2-774.1-392c-37.2-72.5-37.2-123.5,0-196c31.4-60.8,119.6-117.6,180.3-117.6c19.6,0,194,70.5,388,154.8c194,86.2,354.7,154.8,356.7,152.9c2-2-15.7-74.5-37.2-160.7c-56.8-221.4-70.5-734.9-27.4-983.8c94.1-548.7,352.7-1032.8,754.5-1422.8c374.3-362.5,819.2-591.8,1334.6-689.8c266.5-50.9,670.2-47,936.7,7.9c358.6,74.5,746.7,239.1,811.3,344.9c80.3,131.3,15.7,266.5-150.9,311.6c-25.5,7.8-98-15.7-184.2-56.8c-350.8-168.5-664.4-245-999.5-245c-527.2,0-1011.2,203.8-1430.6,599.7c-488,462.5-734.9,1042.6-701.6,1642.2c11.8,196,62.7,474.3,90.2,489.9c7.8,5.9,84.3-148.9,170.5-344.9c125.4-290,164.6-362.6,213.6-392c84.3-50.9,172.5-45.1,243,15.7c117.6,98,111.7,115.6-188.1,803.5c-290,668.3-309.6,695.7-446.8,691.8C1409.6-369.8,1166.6-467.8,902-583.4z"/></g></g>
</svg>