<?xml version="1.0" encoding="utf-8"?>
<!-- Svg Vector Icons : http://www.onlinewebfonts.com/icon -->
<!DOCTYPE svg PUBLIC "-//W3C//DTD SVG 1.1//EN" "http://www.w3.org/Graphics/SVG/1.1/DTD/svg11.dtd">
<svg version="1.1" xmlns="http://www.w3.org/2000/svg" xmlns:xlink="http://www.w3.org/1999/xlink" x="0px" y="0px" viewBox="0 0 1000 1000" enable-background="new 0 0 1000 1000" xml:space="preserve">
<metadata> Svg Vector Icons : http://www.onlinewebfonts.com/icon </metadata>
<g><path d="M500,10C229.4,10,10,229.4,10,500c0,195.6,114.6,364.3,280.2,442.9c5.5-111.2,11.8-217.5,18.7-297c-59.4-15.1-104.3-87-104.3-173.5c0-97.4,57.1-176.4,127.6-176.4c70.5,0,127.6,79,127.6,176.4c0,86.4-45,158.3-104.3,173.5c7.5,86.9,14.4,205.8,20.2,328.2C415.4,984.5,457,990,500,990c43,0,84.6-5.5,124.4-15.9c5.8-121.5,12.5-239.6,20-326.4c-59.3-6.2-104.2-38.3-104.2-124.7c0-75,5.3-169,61.9-208.4v170.6c0,11,9,20,20,20h4.1c11,0,20-9,20-20V297.6c6.8-1,14-1.6,21.7-1.6c7.7,0,14.9,0.6,21.7,1.7v187.5c0,11,9,20,20,20h4.2c11,0,20-9,20-20V315.4c55.1,39.8,61.9,133.1,61.9,207.6c0,86.4-44.9,118.5-104.2,124.7c6.8,79.3,13.1,184.9,18.5,295.3C875.4,864.3,990,695.6,990,500C990,229.4,770.6,10,500,10z M589.5,849.2c11.1-2.8,22.4,3.9,25.2,14.9c2.8,11.1-3.9,22.4-14.9,25.2c-32.4,8.3-66,12.5-99.8,12.5c-32.2,0-64.2-3.8-95.2-11.4c-11.1-2.7-17.9-13.9-15.2-25c2.7-11.1,13.9-17.9,25-15.2c27.8,6.8,56.5,10.2,85.4,10.2C530.3,860.4,560.4,856.6,589.5,849.2z M763.4,803.4c-8.6,7.5-21.7,6.6-29.2-2.1c-7.5-8.6-6.6-21.7,2.1-29.2c78.9-68.5,124.1-167.8,124.1-272.2c0-198.7-161.7-360.4-360.4-360.4c-198.7,0-360.4,161.7-360.4,360.4c0,111.5,50.4,214.9,138.2,283.8c9,7.1,10.6,20.1,3.5,29.1c-4.1,5.2-10.2,7.9-16.3,7.9c-4.5,0-9-1.4-12.8-4.4C205.3,779.6,166.5,732,140,678.8c-27.8-55.8-41.9-116-41.9-178.8c0-107.3,41.8-208.2,117.7-284.1C291.8,140,392.7,98.2,500,98.2c107.3,0,208.2,41.8,284.1,117.7C860,291.8,901.8,392.7,901.8,500C901.8,616.4,851.4,727,763.4,803.4z"/></g>
</svg>