<?xml version="1.0" encoding="utf-8"?>
<!-- Svg Vector Icons : http://www.onlinewebfonts.com/icon -->
<!DOCTYPE svg PUBLIC "-//W3C//DTD SVG 1.1//EN" "http://www.w3.org/Graphics/SVG/1.1/DTD/svg11.dtd">
<svg version="1.1" xmlns="http://www.w3.org/2000/svg" xmlns:xlink="http://www.w3.org/1999/xlink" x="0px" y="0px" viewBox="0 0 1000 1000" enable-background="new 0 0 1000 1000" xml:space="preserve">
<metadata> Svg Vector Icons : http://www.onlinewebfonts.com/icon </metadata>
<g><g><g><path d="M828.7,540.6C938.8,537.9,990,488.3,990,427.4c0-52.8-38.5-97.1-120.5-109.8c0.4-19.8,0.4-38.8,0.4-56.4H360.4c0,85.6,0.1,204.8,47.3,291.4c94.5,4.6,178.6,27.8,241.8,63.4c19.6,11.1,37.3,23.3,52.6,36.5c4.9,4.3,9.5,8.7,13.9,13.1c90.6-4,154-13.2,154-23.9c0-8.6-41.4-16.3-105-21C793.1,599.6,813.7,571.9,828.7,540.6z M924.5,428.6c-0.6,32.9-16.8,55-76.8,62.1c11.6-39.6,17.1-82.1,19.8-123.2C911.7,377.8,925,399.9,924.5,428.6z M421.9,294.6h79.7c-35.7,116.8,24.5,272.1,24.5,272.1C395.9,466.8,421.9,294.6,421.9,294.6z"/><path d="M710.6,107.8c-43,14.4-78.6,38.4-83.9,86.4c-2.1,19.3,28.1,19.1,30.2,0c10.1-91.8,212.7-45.9,170.5-165c-6.5-18.2-35.6-10.4-29.1,8C816.8,89.4,746.4,95.8,710.6,107.8z"/><path d="M800.7,129.9c-39.5,9.3-75.6,26.2-87.9,67.8c-5.5,18.7,23.6,26.7,29.1,8c13.6-45.9,73.9-46.6,112.3-57.8c41.3-12,64.9-40.6,59.3-84.6c-2.4-19-32.7-19.3-30.2,0C890.1,116.5,841.2,120.4,800.7,129.9z"/><path d="M372.9,981.2c200.1,0,362.9-88.8,362.9-198c0-43.2-25.6-83.2-68.8-115.8c-2.4-1.8-4.9-3.6-7.5-5.4c-25.5-17.9-56.5-33.4-91.6-45.6c-40.8-14.3-87.2-24.2-136.9-28.6c-18.9-1.7-38.4-2.6-58.1-2.6C172.8,585.1,10,674,10,783.2C10,892.4,172.8,981.2,372.9,981.2z M223,699.5c13.8,0,25,11.2,25,25c0,8.2,4.6,16.6,12.7,24.5c11.9-24.8,56.9-43.3,110.9-43.3c55.3,0,101.4,19.4,111.8,45.1c9.3-8.4,14.5-17.5,14.5-26.3c0-13.8,11.2-25,25-25c13.8,0,25,11.2,25,25c0,61.6-76.8,109.8-175,109.8c-98.1,0-175-48.3-175-109.8C197.9,710.7,209.1,699.5,223,699.5z"/></g></g><g></g><g></g><g></g><g></g><g></g><g></g><g></g><g></g><g></g><g></g><g></g><g></g><g></g><g></g><g></g></g>
</svg>