<?xml version="1.0" encoding="utf-8"?>
<!-- Generator: Adobe Illustrator 21.0.2, SVG Export Plug-In . SVG Version: 6.00 Build 0)  -->
<svg version="1.1" id="Layer_1" xmlns="http://www.w3.org/2000/svg" xmlns:xlink="http://www.w3.org/1999/xlink" x="0px" y="0px"
	 viewBox="0 0 300 300" style="enable-background:new 0 0 300 300;" xml:space="preserve">
<g>
	<path d="M87.3,103.8c9.8,0,18.1-3.4,24.8-10.3c6.9-6.9,10.3-15.1,10.3-24.8c0-9.8-3.4-18.1-10.3-24.9c-6.9-6.9-15.1-10.3-24.8-10.3
		c-9.8,0-18.1,3.4-24.9,10.3S52.1,59,52.1,68.8c0,9.8,3.4,18.1,10.3,24.8C69.2,100.3,77.5,103.8,87.3,103.8z"/>
	<path d="M289.2,77.3c-2.5-2.5-5.6-3.8-9.2-3.8s-6.6,1.3-9.2,3.8L240.2,108h-49.6l-29-29c-0.4-0.6-0.9-1.2-1.5-1.7
		c-2.5-2.5-5.6-3.8-9.2-3.8h-0.1h-0.1c-3.6,0-6.6,1.3-9.2,3.8c-0.5,0.5-1,1.1-1.5,1.7l-29,29H61.6L30.9,77.3
		c-2.5-2.5-5.6-3.8-9.2-3.8s-6.6,1.3-9.2,3.8c-2.5,2.5-3.8,5.6-3.8,9.2s1.3,6.6,3.8,9.2L50.8,135v100c0,4.1,1.5,7.7,4.4,10.6
		c3,3,6.5,4.4,10.6,4.4s7.7-1.5,10.6-4.4c3-3,4.4-6.5,4.4-10.6v-51.7h10.6V235c0,4.1,1.5,7.7,4.4,10.6c3,3,6.5,4.4,10.6,4.4
		s7.7-1.5,10.6-4.4c3-3,4.4-6.5,4.4-10.6V135l29-30l29,30v100c0,4.1,1.5,7.7,4.4,10.6c3,3,6.5,4.4,10.6,4.4s7.7-1.5,10.6-4.4
		c3-3,4.4-6.5,4.4-10.6v-51.7H220V235c0,4.1,1.5,7.7,4.4,10.6c3,3,6.5,4.4,10.6,4.4s7.7-1.5,10.6-4.4c3-3,4.4-6.5,4.4-10.6V135
		l38.3-39.3c2.5-2.5,3.8-5.6,3.8-9.2C293,82.8,291.7,79.8,289.2,77.3z"/>
	<path d="M141.8,53.5c1,1.4,2.1,2.6,3.1,3.6c1,1,2.2,2,3.6,3c1.4,0.9,2.9,1.7,4.4,2.3s3.3,1,5.2,1.3c2,0.2,4.1,0.3,6.3,0.1
		c1.7-0.1,3.4-0.5,4.8-1c1.4-0.5,2.7-1.2,3.6-1.9c0.9-0.7,1.9-1.5,2.8-2.3c0.8-0.8,1.6-1.6,2.4-2.6c0.7-0.8,1.5-1.6,2.2-2.3
		c0.7-0.7,1.6-1.3,2.6-1.7c0.7-0.3,1.4-0.6,2.1-0.7c-3,5.1-4.5,11-4.5,17.4c0,9.8,3.4,18.1,10.3,24.8c6.9,6.9,15.1,10.3,24.9,10.3
		c9.8,0,18.1-3.4,24.8-10.3c6.9-6.9,10.3-15.1,10.3-24.8c0-6.5-1.5-12.4-4.7-17.5c1,0.1,2,0.3,2.9,0.8s1.9,1,2.6,1.7
		c0.7,0.7,1.5,1.5,2.2,2.3s1.5,1.6,2.4,2.6c0.8,0.8,1.7,1.6,2.8,2.3c1,0.7,2.2,1.3,3.6,1.9c1.4,0.5,3,0.8,4.8,1
		c2.2,0.2,4.3,0.1,6.3-0.1c2-0.2,3.7-0.7,5.2-1.3c1.5-0.6,2.9-1.4,4.4-2.3c1.4-0.9,2.6-2,3.6-3c1-1,2.1-2.2,3.1-3.6l0,0v-0.1
		c-3,0.8-5.6,1-7.7,0.9c-1.2-0.1-2.2-0.3-3.1-0.8c-0.9-0.5-1.9-1-2.6-1.7c-0.7-0.7-1.5-1.5-2.2-2.3s-1.5-1.6-2.4-2.6
		c-0.8-0.8-1.7-1.6-2.8-2.3c-0.9-0.7-2.2-1.3-3.6-1.9c-1.4-0.5-3-0.8-4.8-1c-2.2-0.2-4.3-0.1-6.3,0.1s-3.7,0.7-5.2,1.3
		c-1.5,0.6-2.9,1.4-4.4,2.3c-0.7,0.5-1.3,0.9-1.7,1.4c-0.8-1-1.7-2-2.7-2.9c-6.9-6.9-15.1-10.3-24.8-10.3c-9.8,0-18.1,3.4-24.9,10.3
		c-0.8,0.8-1.6,1.7-2.4,2.7c-0.5-0.3-0.9-0.7-1.4-1c-1.4-0.9-2.9-1.7-4.4-2.3c-1.5-0.6-3.3-1-5.2-1.3c-2-0.2-4.1-0.3-6.3-0.1
		c-1.7,0.1-3.4,0.5-4.8,1c-1.4,0.5-2.7,1.2-3.6,1.9c-0.9,0.7-1.9,1.5-2.8,2.3c-0.8,0.8-1.6,1.6-2.4,2.6c-0.7,0.8-1.5,1.6-2.2,2.3
		c-0.7,0.7-1.6,1.3-2.6,1.7c-0.9,0.5-2.1,0.8-3.1,0.8C147.3,54.5,144.7,54.2,141.8,53.5L141.8,53.5L141.8,53.5z"/>
</g>
</svg>
