<?xml version="1.0" encoding="utf-8"?>
<!-- Svg Vector Icons : http://www.onlinewebfonts.com/icon -->
<!DOCTYPE svg PUBLIC "-//W3C//DTD SVG 1.1//EN" "http://www.w3.org/Graphics/SVG/1.1/DTD/svg11.dtd">
<svg version="1.1" xmlns="http://www.w3.org/2000/svg" xmlns:xlink="http://www.w3.org/1999/xlink" x="0px" y="0px" viewBox="0 0 1000 1000" enable-background="new 0 0 1000 1000" xml:space="preserve">
<metadata> Svg Vector Icons : http://www.onlinewebfonts.com/icon </metadata>
<g><g transform="translate(0.000000,511.000000) scale(0.100000,-0.100000)"><path d="M1516.2,4942.8c-380-51.9-689-213.2-970.6-511.3C244.9,4117.1,100,3753.5,100,3316.1c0-503.1,210.5-946,601.5-1274.1c155.8-131.2,456.6-278.9,664.4-328.1c191.4-43.8,546.8-43.8,738.2,0c596,139.4,1093.6,637,1233,1233c139.4,593.3-84.8,1241.2-568.7,1643.1C2443,4860.8,1948.2,5000.2,1516.2,4942.8z M2139.6,4480.8c686.2-237.9,1019.8-1033.5,710.8-1695.1c-95.7-199.6-382.8-489.4-582.3-582.4c-571.4-267.9-1211.2-82-1583,462.1c-237.9,349.9-235.1,948.7,5.5,1306.8c84.8,125.8,240.6,284.3,360.9,369.1c106.6,71.1,366.4,175,505.8,202.3C1683,4565.5,1983.7,4532.7,2139.6,4480.8z"/><path d="M1598.2,4300.3c-68.4-65.6-68.4-71.1-68.4-563.2v-497.6l322.6-328.1c175-177.7,350-336.3,385.5-350c125.8-49.2,276.1,65.6,276.1,213.3c0,24.6-128.5,175-287.1,336.3L1940,3400.8v418.3c0,404.6-2.7,418.3-68.3,481.2c-35.5,38.3-98.4,68.3-136.7,68.3C1696.7,4368.7,1633.8,4338.6,1598.2,4300.3z"/><path d="M5589.9,2408.4c-473-41-1006.1-155.8-1517.4-325.3c-481.2-158.6-672.6-265.2-784.7-432c-158.6-232.4-161.3-259.7-79.3-1246.7c41-489.4,73.8-921.3,71.1-959.6c0-60.1-16.4-76.5-93-90.2c-164-30.1-415.6-177.7-549.5-319.9c-240.6-257-336.3-582.3-284.3-967.8c51.9-401.9,248.8-1230.3,486.7-2053.2c95.7-336.3,114.8-374.6,257-524.9c144.9-147.7,341.8-224.2,587.8-224.2c401.9,0,631.6,150.4,686.2,448.4c13.7,76.5,46.5,153.1,73.8,172.2c38.3,27.3,382.8,35.5,1684.2,35.5c1599.4,0,1634.9,0,1689.6-54.7c32.8-32.8,54.7-90.2,54.7-142.2c0-175,180.4-369.1,396.4-429.2c158.6-43.7,448.4-35.5,596,13.7c142.2,46.5,355.4,224.2,415.6,341.8c52,98.4,221.4,689,380,1323.3c248.8,997.9,289.8,1364.3,185.9,1659.6c-128.5,363.6-404.6,620.6-776.5,716.3c-125.8,32.8-144.9,46.5-139.4,101.2c2.7,35.5,38.2,473,76.5,967.8l73.8,902.2l-57.4,150.4c-65.6,177.7-210.5,333.6-385.5,423.8c-196.9,98.4-825.7,303.5-1178.3,380C6885.8,2402.9,6131.2,2454.9,5589.9,2408.4z M7079.9,1935.4c607-106.6,1334.2-344.5,1481.8-483.9c41-38.3,82-103.9,90.2-144.9c8.2-43.8-13.7-451.1-52-907.7c-82-976-92.9-1060.8-128.5-1060.8c-90.3,0-347.2-166.8-489.4-317.2c-194.1-207.8-276.1-401.9-295.3-702.6c-13.7-213.3-13.7-213.3-84.8-199.6c-686.2,136.7-2277.4,136.7-2960.9,0c-76.5-16.4-76.5-13.7-76.5,131.3c-2.7,300.7-98.4,546.8-303.5,773.7c-117.6,125.8-360.9,278.9-516.7,322.6c-35.5,10.9-57.4,183.2-120.3,984.2l-79.3,967.8l57.4,98.4c68.3,109.4,172.3,158.6,656.2,319.9c347.2,114.8,877.6,232.4,1222.1,273.4C5855.1,2031.1,6691.7,2003.7,7079.9,1935.4z M3758.1-1093.9c128.5-65.6,259.7-199.6,330.8-333.6c68.3-131.2,68.3-440.2,0-593.3c-60.2-136.7-35.6-251.5,71.1-303.5c60.1-27.3,128.5-24.6,410.1,21.9c563.2,90.2,937.8,117.5,1552.9,117.5c617.9,0,995.2-30.1,1550.2-117.5c374.6-60.2,445.6-49.2,500.3,82c24.6,60.2,19.1,98.4-24.6,216c-177.7,448.4,109.4,929.6,585.1,978.8c281.6,30.1,538.6-112.1,683.5-377.3c106.6-199.6,103.9-396.4-24.6-981.5C9253.5-3035,8947.2-4134.1,8892.6-4197c-82-87.5-188.6-128.5-349.9-128.5c-199.6,0-251.5,30.1-273.4,158.6c-24.6,153.1-123,308.9-254.3,401.9l-120.3,82l-1741.5,8.2l-1741.6,5.5l-120.3-62.9c-158.6-82-262.5-218.7-308.9-399.2c-21.9-82-57.4-158.6-84.8-172.2c-27.3-16.4-134-21.9-237.9-16.4c-333.5,19.1-347.2,46.5-694.4,1451.7c-202.3,822.9-248.8,1104.6-207.8,1293.2c54.7,235.1,229.7,434.7,464.8,522.2C3356.2-1003.7,3624.1-1022.8,3758.1-1093.9z"/></g></g>
</svg>