<?xml version='1.0' encoding='iso-8859-1'?>
<svg version="1.1" xmlns="http://www.w3.org/2000/svg" viewBox="0 0 381.234 381.234" xmlns:xlink="http://www.w3.org/1999/xlink" enable-background="new 0 0 381.234 381.234">
  <g>
    <path d="m358.551,129.07h-55.607l-1.438,2.523c-10.52,18.445-29.392,30.427-50.099,32.152v-33.107h5.91c18.021,0 32.684-14.662 32.684-32.684v-45.884c0-18.021-14.662-32.684-32.684-32.684h-61.354l-4.332,7.489c-9.608,16.607-27.475,26.924-46.631,26.924-19.155,0-37.023-10.316-46.63-26.923l-4.332-7.489h-61.354c-18.022,0-32.684,14.662-32.684,32.683v45.883c0,18.021 14.662,32.684 32.684,32.684h5.91v98.75c0,21.876 17.797,39.674 39.674,39.674h71.56v62.763c0,16.555 13.312,30.023 29.673,30.023h133.465c16.362,0 29.674-13.468 29.674-30.023v-110.357h15.91c12.508,0 22.684-10.288 22.684-22.934v-46.53c-5.68434e-14-12.646-10.175-22.933-22.683-22.933zm-280.283,109.991c-5.334,0-9.674-4.34-9.674-9.674v-128.75h-35.91c-1.48,0-2.684-1.204-2.684-2.684v-45.883c0-1.479 1.204-2.684 2.684-2.684h44.604c15.677,21.424 40.881,34.413 67.712,34.413 26.832,0 52.035-12.989 67.712-34.412h44.605c1.479,0 2.684,1.204 2.684,2.684v45.883c0,1.479-1.204,2.684-2.684,2.684h-35.91v58.19c-12.59-5.416-23.392-14.874-30.443-27.235l-1.439-2.523h-55.606c-12.508,0-22.684,10.288-22.684,22.934v46.53c0,12.646 10.176,22.934 22.684,22.934h15.91v17.594h-71.561v-0.001z"/>
  </g>
</svg>
