<?xml version="1.0" encoding="utf-8"?>
<!-- Svg Vector Icons : http://www.onlinewebfonts.com/icon -->
<!DOCTYPE svg PUBLIC "-//W3C//DTD SVG 1.1//EN" "http://www.w3.org/Graphics/SVG/1.1/DTD/svg11.dtd">
<svg version="1.1" xmlns="http://www.w3.org/2000/svg" xmlns:xlink="http://www.w3.org/1999/xlink" x="0px" y="0px" viewBox="0 0 1000 1000" enable-background="new 0 0 1000 1000" xml:space="preserve">
<metadata> Svg Vector Icons : http://www.onlinewebfonts.com/icon </metadata>
<g><g transform="translate(0.000000,511.000000) scale(0.100000,-0.100000)"><path d="M4704.4,5006.7c-424.8-65.7-713.8-151.1-1016-302.2c-727-361.3-1243.8-959.1-1502.1-1727.7c-98.5-293.4-142.3-578.1-142.3-913.1c0-457.6,41.6-626.3,278.1-1116.7c162-341.6,420.4-779.5,716-1215.3l205.8-306.6l-832.1-10.9l-832.1-10.9l-41.6-52.6c-39.4-48.2-41.6-113.9-41.6-2043v-1990.4l54.7-52.6l52.5-54.7H5000h3396.2l52.6,54.7l54.7,52.6v1990.4c0,1929.1-2.2,1994.8-41.6,2043l-41.6,52.6l-799.3,10.9L6824-574.8l162.1,229.9c569.3,805.8,845.2,1364.2,935,1902.8c43.8,262.8,43.8,718.2,2.2,987.6c-170.8,1048.9-956.9,1970.7-1970.7,2310.1c-282.5,96.3-549.6,140.1-875.9,151.1C4908,5011.1,4741.6,5011.1,4704.4,5006.7z M5591.2,4595c753.3-177.4,1377.3-665.7,1734.2-1362c197.1-383.2,280.3-735.7,280.3-1180.3c0-781.7-264.9-1346.7-1267.8-2691.1c-444.5-600-1296.3-1644.5-1337.9-1644.5c-21.9,0-166.4,177.4-558.4,678.8C3421.2-294.6,2657,907.6,2457.7,1518.5c-48.2,148.9-52.5,194.9-50.4,567.1c0,365.7,6.6,424.8,59.1,624.1c78.8,297.8,300,735.7,486.1,967.9c402.9,501.4,987.6,843,1640.1,959.1C4853.3,4682.6,5297.8,4665.1,5591.2,4595z M3791.3-1325.9c394.1-532.1,816.8-1062,963.5-1213.1c194.9-201.5,300-197.1,512.4,21.9c162,164.2,643.8,746.7,1002.9,1210.9l289.1,370.1h797h797.1v-1751.8v-1751.8H5000H1846.8v1751.8v1751.8h827.7l825.5-2.2L3791.3-1325.9z"/><path d="M4586.1,4133c-437.9-98.5-794.9-295.6-1099.2-606.6c-400.7-413.8-617.5-998.5-582.5-1570c61.3-930.6,683.2-1686.1,1583.2-1920.4c310.9-81,713.8-81,1024.8,0c753.2,197.1,1344.5,788.3,1524,1526.2c269.3,1105.8-363.5,2200.7-1460.5,2529.1c-162,48.2-243,59.1-521.1,65.7C4822.6,4163.7,4684.7,4154.9,4586.1,4133z M5413.9,3771.7c608.7-146.7,1099.2-621.9,1276.6-1239.4c70.1-247.4,70.1-667.9,0-915.3c-146.7-508-486.1-913.1-952.5-1129.9c-455.4-214.6-1022.6-214.6-1480.2,0C3362.1,907.6,2992,1998.1,3447.5,2873.9c232.1,446.7,650.3,779.5,1125.5,895.6C4816.1,3828.7,5170.8,3828.7,5413.9,3771.7z"/></g></g>
</svg>